<svg xmlns="http://www.w3.org/2000/svg" xmlns:xlink="http://www.w3.org/1999/xlink" width="850" zoomAndPan="magnify" viewBox="0 0 637.5 149.999998" height="200" preserveAspectRatio="xMidYMid meet" version="1.0"><defs><g/><clipPath id="bf0b59fddf"><path d="M 0 0.0585938 L 637 0.0585938 L 637 149.941406 L 0 149.941406 Z M 0 0.0585938 " clip-rule="nonzero"/></clipPath><clipPath id="41c268d03d"><path d="M 11.183594 8.191406 L 144.972656 8.191406 L 144.972656 141.980469 L 11.183594 141.980469 Z M 11.183594 8.191406 " clip-rule="nonzero"/></clipPath></defs><g clip-path="url(#bf0b59fddf)"><path fill="#ffffff" d="M 0 0.0585938 L 637 0.0585938 L 637 149.941406 L 0 149.941406 Z M 0 0.0585938 " fill-opacity="1" fill-rule="nonzero"/><path fill="#ffffff" d="M 0 0.0585938 L 637 0.0585938 L 637 149.941406 L 0 149.941406 Z M 0 0.0585938 " fill-opacity="1" fill-rule="nonzero"/></g><g clip-path="url(#41c268d03d)"><path fill="#3663f4" d="M 144.796875 75 C 122.53125 99.59375 102.589844 119.535156 77.992188 141.804688 C 53.394531 119.535156 33.453125 99.59375 11.183594 75 C 33.453125 50.402344 53.394531 30.460938 77.992188 8.191406 C 102.589844 30.460938 122.53125 50.402344 144.796875 75 Z M 144.796875 75 " fill-opacity="1" fill-rule="nonzero"/></g><g fill="#f8f8f8" fill-opacity="1"><g transform="translate(77.993457, 105.0078)"><g><path d="M 9.96875 -11.53125 C 13.070312 -11.53125 15.28125 -12.054688 16.59375 -13.109375 C 17.914062 -14.171875 18.734375 -15.578125 19.046875 -17.328125 C 19.359375 -19.078125 19.515625 -20.957031 19.515625 -22.96875 L 19.515625 -58.484375 L 32.421875 -58.484375 L 32.421875 -21.9375 C 32.421875 -16.375 31.515625 -11.925781 29.703125 -8.59375 C 27.898438 -5.269531 25.335938 -2.863281 22.015625 -1.375 C 18.691406 0.113281 14.675781 0.859375 9.96875 0.859375 C 8.476562 0.859375 7.046875 0.769531 5.671875 0.59375 C 4.296875 0.425781 2.976562 0.195312 1.71875 -0.09375 L 1.71875 -15.828125 L 1.984375 -15.828125 C 3.472656 -12.960938 6.132812 -11.53125 9.96875 -11.53125 Z M 9.96875 -11.53125 "/></g></g></g><g fill="#f8f8f8" fill-opacity="1"><g transform="translate(39.376158, 104.778487)"><g><path d="M 27.3125 -8.9375 C 28.664062 -8.9375 30.128906 -9.144531 31.703125 -9.5625 C 33.273438 -9.988281 34.632812 -10.691406 35.78125 -11.671875 C 36.9375 -12.660156 37.515625 -14 37.515625 -15.6875 C 37.515625 -17.257812 36.910156 -18.519531 35.703125 -19.46875 C 34.492188 -20.425781 32.90625 -21.210938 30.9375 -21.828125 C 28.96875 -22.453125 26.816406 -23.03125 24.484375 -23.5625 C 22.160156 -24.09375 19.816406 -24.738281 17.453125 -25.5 C 15.085938 -26.257812 12.921875 -27.257812 10.953125 -28.5 C 8.992188 -29.738281 7.410156 -31.335938 6.203125 -33.296875 C 4.992188 -35.265625 4.390625 -37.769531 4.390625 -40.8125 C 4.390625 -43.789062 5.003906 -46.359375 6.234375 -48.515625 C 7.472656 -50.679688 9.117188 -52.476562 11.171875 -53.90625 C 13.222656 -55.34375 15.523438 -56.410156 18.078125 -57.109375 C 20.640625 -57.816406 23.210938 -58.171875 25.796875 -58.171875 C 29.734375 -58.171875 33.414062 -57.550781 36.84375 -56.3125 C 40.269531 -55.082031 43.066406 -53.128906 45.234375 -50.453125 C 47.398438 -47.785156 48.535156 -44.257812 48.640625 -39.875 L 36.421875 -39.875 C 36.085938 -42.851562 35.046875 -44.921875 33.296875 -46.078125 C 31.554688 -47.234375 29.113281 -47.8125 25.96875 -47.8125 C 24.789062 -47.8125 23.539062 -47.613281 22.21875 -47.21875 C 20.894531 -46.820312 19.769531 -46.1875 18.84375 -45.3125 C 17.914062 -44.445312 17.453125 -43.28125 17.453125 -41.8125 C 17.453125 -40.351562 18.054688 -39.203125 19.265625 -38.359375 C 20.472656 -37.515625 22.0625 -36.8125 24.03125 -36.25 C 26 -35.6875 28.160156 -35.148438 30.515625 -34.640625 C 32.878906 -34.140625 35.226562 -33.523438 37.5625 -32.796875 C 39.894531 -32.066406 42.046875 -31.066406 44.015625 -29.796875 C 45.984375 -28.535156 47.570312 -26.894531 48.78125 -24.875 C 49.988281 -22.851562 50.59375 -20.265625 50.59375 -17.109375 C 50.59375 -13.742188 49.914062 -10.878906 48.5625 -8.515625 C 47.21875 -6.148438 45.40625 -4.25 43.125 -2.8125 C 40.851562 -1.382812 38.296875 -0.335938 35.453125 0.328125 C 32.617188 1.003906 29.738281 1.34375 26.8125 1.34375 C 22.59375 1.34375 18.640625 0.628906 14.953125 -0.796875 C 11.273438 -2.234375 8.296875 -4.441406 6.015625 -7.421875 C 3.742188 -10.398438 2.582031 -14.222656 2.53125 -18.890625 L 15.34375 -18.890625 C 15.507812 -15.460938 16.773438 -12.945312 19.140625 -11.34375 C 21.503906 -9.738281 24.226562 -8.9375 27.3125 -8.9375 Z M 27.3125 -8.9375 "/></g></g></g><g fill="#05264e" fill-opacity="1"><g transform="translate(144.801863, 110.642283)"><g><path d="M 43.828125 -49.921875 C 43.640625 -52.285156 42.757812 -54.128906 41.1875 -55.453125 C 39.613281 -56.773438 37.226562 -57.4375 34.03125 -57.4375 C 32 -57.4375 30.335938 -57.191406 29.046875 -56.703125 C 27.765625 -56.222656 26.816406 -55.566406 26.203125 -54.734375 C 25.585938 -53.910156 25.269531 -52.96875 25.25 -51.90625 C 25.195312 -51.03125 25.351562 -50.242188 25.71875 -49.546875 C 26.082031 -48.847656 26.664062 -48.222656 27.46875 -47.671875 C 28.28125 -47.117188 29.3125 -46.613281 30.5625 -46.15625 C 31.8125 -45.707031 33.300781 -45.304688 35.03125 -44.953125 L 40.984375 -43.6875 C 45.003906 -42.832031 48.441406 -41.707031 51.296875 -40.3125 C 54.160156 -38.914062 56.503906 -37.273438 58.328125 -35.390625 C 60.148438 -33.515625 61.488281 -31.40625 62.34375 -29.0625 C 63.207031 -26.726562 63.648438 -24.179688 63.671875 -21.421875 C 63.648438 -16.640625 62.457031 -12.59375 60.09375 -9.28125 C 57.726562 -5.976562 54.351562 -3.460938 49.96875 -1.734375 C 45.582031 -0.015625 40.316406 0.84375 34.171875 0.84375 C 27.867188 0.84375 22.367188 -0.0859375 17.671875 -1.953125 C 12.984375 -3.816406 9.34375 -6.691406 6.75 -10.578125 C 4.164062 -14.472656 2.863281 -19.457031 2.84375 -25.53125 L 21.5625 -25.53125 C 21.675781 -23.3125 22.226562 -21.441406 23.21875 -19.921875 C 24.21875 -18.410156 25.617188 -17.265625 27.421875 -16.484375 C 29.234375 -15.703125 31.390625 -15.3125 33.890625 -15.3125 C 35.992188 -15.3125 37.753906 -15.570312 39.171875 -16.09375 C 40.597656 -16.613281 41.675781 -17.332031 42.40625 -18.25 C 43.132812 -19.175781 43.515625 -20.234375 43.546875 -21.421875 C 43.515625 -22.523438 43.148438 -23.492188 42.453125 -24.328125 C 41.753906 -25.171875 40.613281 -25.929688 39.03125 -26.609375 C 37.445312 -27.285156 35.3125 -27.914062 32.625 -28.5 L 25.390625 -30.0625 C 18.960938 -31.457031 13.894531 -33.789062 10.1875 -37.0625 C 6.488281 -40.34375 4.65625 -44.816406 4.6875 -50.484375 C 4.65625 -55.097656 5.882812 -59.132812 8.375 -62.59375 C 10.875 -66.0625 14.335938 -68.765625 18.765625 -70.703125 C 23.203125 -72.640625 28.289062 -73.609375 34.03125 -73.609375 C 39.894531 -73.609375 44.96875 -72.625 49.25 -70.65625 C 53.53125 -68.695312 56.832031 -65.9375 59.15625 -62.375 C 61.488281 -58.820312 62.664062 -54.671875 62.6875 -49.921875 Z M 43.828125 -49.921875 "/></g></g></g><g fill="#05264e" fill-opacity="1"><g transform="translate(211.311669, 110.642283)"><g><path d="M 31.203125 1 C 25.296875 1 20.238281 -0.175781 16.03125 -2.53125 C 11.820312 -4.882812 8.59375 -8.171875 6.34375 -12.390625 C 4.101562 -16.609375 2.984375 -21.507812 2.984375 -27.09375 C 2.984375 -32.664062 4.101562 -37.5625 6.34375 -41.78125 C 8.59375 -46 11.820312 -49.285156 16.03125 -51.640625 C 20.238281 -53.992188 25.296875 -55.171875 31.203125 -55.171875 C 36.546875 -55.171875 41.171875 -54.207031 45.078125 -52.28125 C 48.992188 -50.351562 52.023438 -47.632812 54.171875 -44.125 C 56.328125 -40.613281 57.414062 -36.492188 57.4375 -31.765625 L 39.28125 -31.765625 C 39.019531 -34.628906 38.195312 -36.8125 36.8125 -38.3125 C 35.4375 -39.8125 33.660156 -40.5625 31.484375 -40.5625 C 29.785156 -40.5625 28.296875 -40.070312 27.015625 -39.09375 C 25.742188 -38.113281 24.75 -36.632812 24.03125 -34.65625 C 23.320312 -32.6875 22.96875 -30.210938 22.96875 -27.234375 C 22.96875 -24.253906 23.320312 -21.773438 24.03125 -19.796875 C 24.75 -17.828125 25.742188 -16.351562 27.015625 -15.375 C 28.296875 -14.394531 29.785156 -13.90625 31.484375 -13.90625 C 32.921875 -13.90625 34.195312 -14.238281 35.3125 -14.90625 C 36.425781 -15.582031 37.332031 -16.578125 38.03125 -17.890625 C 38.726562 -19.203125 39.144531 -20.800781 39.28125 -22.6875 L 57.4375 -22.6875 C 57.363281 -17.894531 56.265625 -13.71875 54.140625 -10.15625 C 52.015625 -6.601562 49.003906 -3.851562 45.109375 -1.90625 C 41.222656 0.03125 36.585938 1 31.203125 1 Z M 31.203125 1 "/></g></g></g><g fill="#05264e" fill-opacity="1"><g transform="translate(271.865377, 110.642283)"><g><path d="M 31.203125 1 C 25.296875 1 20.238281 -0.175781 16.03125 -2.53125 C 11.820312 -4.882812 8.59375 -8.171875 6.34375 -12.390625 C 4.101562 -16.609375 2.984375 -21.507812 2.984375 -27.09375 C 2.984375 -32.664062 4.101562 -37.5625 6.34375 -41.78125 C 8.59375 -46 11.820312 -49.285156 16.03125 -51.640625 C 20.238281 -53.992188 25.296875 -55.171875 31.203125 -55.171875 C 37.109375 -55.171875 42.164062 -53.992188 46.375 -51.640625 C 50.582031 -49.285156 53.804688 -46 56.046875 -41.78125 C 58.296875 -37.5625 59.421875 -32.664062 59.421875 -27.09375 C 59.421875 -21.507812 58.296875 -16.609375 56.046875 -12.390625 C 53.804688 -8.171875 50.582031 -4.882812 46.375 -2.53125 C 42.164062 -0.175781 37.109375 1 31.203125 1 Z M 31.34375 -13.46875 C 33 -13.46875 34.425781 -14.023438 35.625 -15.140625 C 36.832031 -16.253906 37.765625 -17.835938 38.421875 -19.890625 C 39.085938 -21.941406 39.421875 -24.390625 39.421875 -27.234375 C 39.421875 -30.085938 39.085938 -32.535156 38.421875 -34.578125 C 37.765625 -36.628906 36.832031 -38.207031 35.625 -39.3125 C 34.425781 -40.425781 33 -40.984375 31.34375 -40.984375 C 29.59375 -40.984375 28.09375 -40.425781 26.84375 -39.3125 C 25.59375 -38.207031 24.632812 -36.628906 23.96875 -34.578125 C 23.300781 -32.535156 22.96875 -30.085938 22.96875 -27.234375 C 22.96875 -24.390625 23.300781 -21.941406 23.96875 -19.890625 C 24.632812 -17.835938 25.59375 -16.253906 26.84375 -15.140625 C 28.09375 -14.023438 29.59375 -13.46875 31.34375 -13.46875 Z M 31.34375 -13.46875 "/></g></g></g><g fill="#05264e" fill-opacity="1"><g transform="translate(334.262645, 110.642283)"><g><path d="M 40.28125 -23.828125 L 40.28125 -54.453125 L 59.84375 -54.453125 L 59.84375 0 L 41.265625 0 L 41.265625 -10.359375 L 40.703125 -10.359375 C 39.523438 -6.878906 37.457031 -4.164062 34.5 -2.21875 C 31.539062 -0.269531 28.03125 0.703125 23.96875 0.703125 C 20.164062 0.703125 16.835938 -0.164062 13.984375 -1.90625 C 11.140625 -3.65625 8.929688 -6.066406 7.359375 -9.140625 C 5.785156 -12.210938 4.988281 -15.738281 4.96875 -19.71875 L 4.96875 -54.453125 L 24.53125 -54.453125 L 24.53125 -23.828125 C 24.5625 -21.128906 25.253906 -19.007812 26.609375 -17.46875 C 27.960938 -15.9375 29.867188 -15.171875 32.328125 -15.171875 C 33.960938 -15.171875 35.375 -15.519531 36.5625 -16.21875 C 37.757812 -16.914062 38.679688 -17.90625 39.328125 -19.1875 C 39.984375 -20.476562 40.300781 -22.023438 40.28125 -23.828125 Z M 40.28125 -23.828125 "/></g></g></g><g fill="#05264e" fill-opacity="1"><g transform="translate(399.07071, 110.642283)"><g><path d="M 37.4375 -54.453125 L 37.4375 -40.28125 L 1.5625 -40.28125 L 1.5625 -54.453125 Z M 8.515625 -67.515625 L 28.078125 -67.515625 L 28.078125 -17.515625 C 28.078125 -16.753906 28.207031 -16.117188 28.46875 -15.609375 C 28.726562 -15.109375 29.128906 -14.734375 29.671875 -14.484375 C 30.210938 -14.234375 30.910156 -14.109375 31.765625 -14.109375 C 32.359375 -14.109375 33.050781 -14.175781 33.84375 -14.3125 C 34.632812 -14.457031 35.21875 -14.578125 35.59375 -14.671875 L 38.4375 -0.921875 C 37.5625 -0.660156 36.3125 -0.34375 34.6875 0.03125 C 33.070312 0.414062 31.15625 0.664062 28.9375 0.78125 C 24.445312 1.019531 20.675781 0.554688 17.625 -0.609375 C 14.570312 -1.785156 12.273438 -3.640625 10.734375 -6.171875 C 9.203125 -8.703125 8.460938 -11.867188 8.515625 -15.671875 Z M 8.515625 -67.515625 "/></g></g></g><g fill="#3663f4" fill-opacity="1"><g transform="translate(439.496503, 110.642283)"><g><path d="M 34.609375 -72.609375 L 54.03125 -72.609375 L 54.03125 -22.828125 C 54.007812 -18.109375 52.820312 -13.957031 50.46875 -10.375 C 48.113281 -6.789062 44.875 -4 40.75 -2 C 36.625 0 31.878906 1 26.515625 1 C 21.859375 1 17.601562 0.191406 13.75 -1.421875 C 9.90625 -3.046875 6.832031 -5.601562 4.53125 -9.09375 C 2.238281 -12.582031 1.109375 -17.113281 1.140625 -22.6875 L 20.84375 -22.6875 C 20.914062 -20.875 21.226562 -19.335938 21.78125 -18.078125 C 22.34375 -16.828125 23.125 -15.890625 24.125 -15.265625 C 25.132812 -14.640625 26.359375 -14.328125 27.796875 -14.328125 C 29.265625 -14.328125 30.5 -14.644531 31.5 -15.28125 C 32.507812 -15.914062 33.269531 -16.863281 33.78125 -18.125 C 34.300781 -19.394531 34.578125 -20.960938 34.609375 -22.828125 Z M 34.609375 -72.609375 "/></g></g></g><g fill="#3663f4" fill-opacity="1"><g transform="translate(498.206652, 110.642283)"><g><path d="M 31.203125 1 C 25.296875 1 20.238281 -0.175781 16.03125 -2.53125 C 11.820312 -4.882812 8.59375 -8.171875 6.34375 -12.390625 C 4.101562 -16.609375 2.984375 -21.507812 2.984375 -27.09375 C 2.984375 -32.664062 4.101562 -37.5625 6.34375 -41.78125 C 8.59375 -46 11.820312 -49.285156 16.03125 -51.640625 C 20.238281 -53.992188 25.296875 -55.171875 31.203125 -55.171875 C 37.109375 -55.171875 42.164062 -53.992188 46.375 -51.640625 C 50.582031 -49.285156 53.804688 -46 56.046875 -41.78125 C 58.296875 -37.5625 59.421875 -32.664062 59.421875 -27.09375 C 59.421875 -21.507812 58.296875 -16.609375 56.046875 -12.390625 C 53.804688 -8.171875 50.582031 -4.882812 46.375 -2.53125 C 42.164062 -0.175781 37.109375 1 31.203125 1 Z M 31.34375 -13.46875 C 33 -13.46875 34.425781 -14.023438 35.625 -15.140625 C 36.832031 -16.253906 37.765625 -17.835938 38.421875 -19.890625 C 39.085938 -21.941406 39.421875 -24.390625 39.421875 -27.234375 C 39.421875 -30.085938 39.085938 -32.535156 38.421875 -34.578125 C 37.765625 -36.628906 36.832031 -38.207031 35.625 -39.3125 C 34.425781 -40.425781 33 -40.984375 31.34375 -40.984375 C 29.59375 -40.984375 28.09375 -40.425781 26.84375 -39.3125 C 25.59375 -38.207031 24.632812 -36.628906 23.96875 -34.578125 C 23.300781 -32.535156 22.96875 -30.085938 22.96875 -27.234375 C 22.96875 -24.390625 23.300781 -21.941406 23.96875 -19.890625 C 24.632812 -17.835938 25.59375 -16.253906 26.84375 -15.140625 C 28.09375 -14.023438 29.59375 -13.46875 31.34375 -13.46875 Z M 31.34375 -13.46875 "/></g></g></g><g fill="#3663f4" fill-opacity="1"><g transform="translate(560.60392, 110.642283)"><g><path d="M 4.6875 0 L 4.6875 -72.609375 L 24.25 -72.609375 L 24.25 -44.953125 L 24.53125 -44.953125 C 25.238281 -46.796875 26.28125 -48.492188 27.65625 -50.046875 C 29.03125 -51.597656 30.734375 -52.835938 32.765625 -53.765625 C 34.796875 -54.703125 37.160156 -55.171875 39.859375 -55.171875 C 43.441406 -55.171875 46.859375 -54.210938 50.109375 -52.296875 C 53.359375 -50.378906 56.003906 -47.363281 58.046875 -43.25 C 60.097656 -39.144531 61.125 -33.804688 61.125 -27.234375 C 61.125 -20.941406 60.148438 -15.726562 58.203125 -11.59375 C 56.253906 -7.457031 53.65625 -4.375 50.40625 -2.34375 C 47.15625 -0.3125 43.585938 0.703125 39.703125 0.703125 C 37.148438 0.703125 34.875 0.285156 32.875 -0.546875 C 30.882812 -1.390625 29.1875 -2.535156 27.78125 -3.984375 C 26.375 -5.441406 25.289062 -7.09375 24.53125 -8.9375 L 24.109375 -8.9375 L 24.109375 0 Z M 23.828125 -27.234375 C 23.828125 -24.585938 24.175781 -22.300781 24.875 -20.375 C 25.570312 -18.445312 26.5625 -16.957031 27.84375 -15.90625 C 29.132812 -14.851562 30.679688 -14.328125 32.484375 -14.328125 C 34.273438 -14.328125 35.800781 -14.835938 37.0625 -15.859375 C 38.332031 -16.890625 39.300781 -18.367188 39.96875 -20.296875 C 40.644531 -22.222656 40.984375 -24.535156 40.984375 -27.234375 C 40.984375 -29.921875 40.644531 -32.226562 39.96875 -34.15625 C 39.300781 -36.082031 38.332031 -37.5625 37.0625 -38.59375 C 35.800781 -39.625 34.273438 -40.140625 32.484375 -40.140625 C 30.679688 -40.140625 29.132812 -39.625 27.84375 -38.59375 C 26.5625 -37.5625 25.570312 -36.082031 24.875 -34.15625 C 24.175781 -32.226562 23.828125 -29.921875 23.828125 -27.234375 Z M 23.828125 -27.234375 "/></g></g></g></svg>